<svg id="svg" xmlns="http://www.w3.org/2000/svg" xmlns:xlink="http://www.w3.org/1999/xlink" width="400" height="54.18326693227091" viewBox="0, 0, 400,54.18326693227091"><g id="svgg"><path id="path0" d="M27.689 0.120 C 26.414 0.681,26.440 1.143,28.016 5.995 C 33.449 22.717,32.986 21.586,34.725 22.396 L 35.392 22.707 42.742 22.708 L 50.092 22.709 44.468 26.779 C 37.290 31.974,37.382 31.881,37.402 33.997 C 37.416 35.441,43.182 53.228,43.828 53.818 C 44.814 54.720,46.481 54.007,46.481 52.684 C 46.481 52.268,45.596 49.365,43.552 43.078 C 41.223 35.913,40.649 34.010,40.752 33.785 C 40.823 33.630,44.339 30.991,48.565 27.922 C 52.792 24.853,56.330 22.245,56.428 22.127 C 56.717 21.779,56.766 20.819,56.520 20.343 C 56.078 19.489,56.502 19.522,45.904 19.522 C 36.935 19.522,36.266 19.506,36.010 19.290 C 35.813 19.122,34.910 16.504,32.793 9.960 C 29.541 -0.089,29.644 0.150,28.535 0.053 C 28.216 0.025,27.835 0.055,27.689 0.120 M24.610 9.836 C 24.099 9.990,23.675 10.496,23.564 11.084 C 23.493 11.464,25.712 18.749,26.771 21.612 C 27.355 23.189,29.647 23.092,29.950 21.479 C 30.036 21.021,27.178 11.713,26.607 10.592 C 26.260 9.909,25.422 9.592,24.610 9.836 M104.898 19.433 C 103.781 19.848,103.136 20.440,102.558 21.580 C 102.272 22.145,93.094 44.035,93.094 44.153 C 93.094 44.192,94.494 44.223,96.204 44.223 L 99.314 44.223 101.111 39.675 C 102.100 37.173,103.771 32.945,104.824 30.279 L 106.740 25.432 106.932 25.896 C 107.038 26.152,108.703 30.379,110.634 35.289 L 114.143 44.218 117.291 44.220 L 120.439 44.223 119.900 42.928 C 110.196 19.605,110.590 20.454,109.109 19.685 C 108.291 19.260,105.769 19.109,104.898 19.433 M227.187 19.447 C 226.396 19.729,225.795 20.198,225.300 20.916 C 224.974 21.391,216.846 40.469,215.441 44.060 C 215.388 44.193,216.024 44.221,218.527 44.192 L 221.680 44.157 225.372 34.799 C 228.657 26.473,229.080 25.477,229.209 25.768 C 229.289 25.948,230.956 30.159,232.913 35.126 L 236.472 44.157 239.632 44.192 C 242.144 44.221,242.778 44.193,242.722 44.060 C 233.931 22.940,233.181 21.232,232.324 20.363 C 231.295 19.321,228.792 18.875,227.187 19.447 M248.129 19.492 C 247.360 19.765,246.782 20.194,246.356 20.806 C 245.680 21.777,245.684 21.697,245.684 33.354 L 245.684 44.223 248.538 44.223 L 251.392 44.223 251.427 35.813 L 251.461 27.402 256.241 34.983 C 258.870 39.152,261.252 42.816,261.534 43.125 C 263.228 44.978,267.177 44.940,268.614 43.056 C 269.404 42.021,269.377 42.441,269.423 30.511 L 269.464 19.522 266.539 19.522 L 263.614 19.522 263.580 27.753 L 263.546 35.985 258.832 28.517 C 253.717 20.414,253.590 20.238,252.478 19.692 C 251.487 19.206,249.224 19.102,248.129 19.492 M0.848 19.652 C -0.130 20.048,-0.322 21.495,0.498 22.299 C 0.772 22.567,4.335 25.204,8.417 28.160 C 12.498 31.115,15.893 33.653,15.960 33.799 C 16.054 34.003,15.395 36.176,13.154 43.056 C 9.892 53.069,9.915 52.970,10.693 53.748 C 11.713 54.767,11.345 54.975,21.116 47.857 C 29.058 42.070,29.694 41.578,29.857 41.093 C 30.282 39.827,29.160 38.625,27.862 38.957 C 27.694 39.000,24.748 41.089,21.315 43.600 C 17.882 46.110,15.053 48.149,15.029 48.130 C 15.004 48.112,15.954 45.124,17.139 41.490 C 19.483 34.301,19.583 33.842,19.064 32.596 C 18.599 31.480,18.255 31.189,12.550 27.062 C 9.409 24.791,6.780 22.878,6.707 22.812 C 6.627 22.741,9.694 22.731,14.280 22.787 C 22.675 22.891,22.687 22.890,23.302 22.159 C 23.909 21.438,23.667 20.148,22.846 19.723 C 22.406 19.496,1.404 19.428,0.848 19.652 M67.862 31.873 L 67.862 44.223 70.850 44.223 L 73.838 44.223 73.838 39.110 L 73.838 33.997 79.084 33.997 L 84.329 33.997 84.329 39.110 L 84.329 44.223 87.251 44.223 L 90.173 44.223 90.173 31.873 L 90.173 19.522 87.251 19.522 L 84.329 19.522 84.329 24.236 L 84.329 28.951 79.084 28.951 L 73.838 28.951 73.838 24.236 L 73.838 19.522 70.850 19.522 L 67.862 19.522 67.862 31.873 M117.037 19.686 C 117.075 19.778,119.121 24.874,121.584 31.009 C 124.047 37.145,126.239 42.422,126.456 42.737 C 128.234 45.322,132.964 45.038,134.380 42.262 C 134.524 41.981,136.642 36.749,139.087 30.636 L 143.533 19.522 140.326 19.524 L 137.118 19.526 133.732 28.751 C 131.869 33.824,130.312 37.977,130.272 37.978 C 130.232 37.980,128.672 33.843,126.807 28.785 L 123.415 19.588 120.192 19.553 C 117.630 19.524,116.983 19.552,117.037 19.686 M148.695 19.737 C 147.831 20.003,146.992 20.852,146.664 21.792 C 146.296 22.849,146.276 41.022,146.642 41.934 C 147.000 42.827,147.509 43.390,148.320 43.788 L 149.070 44.157 157.802 44.194 L 166.534 44.230 166.534 41.773 L 166.534 39.316 159.506 39.280 C 155.641 39.259,152.429 39.193,152.368 39.133 C 152.307 39.072,152.239 37.922,152.216 36.576 L 152.175 34.130 159.089 34.130 L 166.003 34.130 166.003 31.607 L 166.003 29.084 159.088 29.084 L 152.173 29.084 152.215 26.887 C 152.250 25.112,152.296 24.667,152.457 24.565 C 152.575 24.491,155.439 24.439,159.529 24.438 L 166.401 24.436 166.401 21.979 L 166.401 19.522 157.869 19.531 C 150.721 19.539,149.232 19.572,148.695 19.737 M170.385 30.058 C 170.385 42.937,170.361 42.766,172.301 43.755 L 173.088 44.157 181.763 44.194 L 190.438 44.230 190.438 41.773 L 190.438 39.316 183.461 39.280 C 177.431 39.248,176.467 39.216,176.358 39.044 C 176.282 38.923,176.232 35.037,176.230 29.183 L 176.228 19.522 173.307 19.522 L 170.385 19.522 170.385 30.058 M198.074 19.605 C 196.641 19.887,196.243 20.005,195.558 20.350 C 190.905 22.692,190.856 30.877,195.481 33.196 C 196.913 33.914,197.731 34.032,201.926 34.121 C 205.620 34.200,205.803 34.216,206.423 34.518 C 208.287 35.426,208.356 38.038,206.540 38.933 L 205.910 39.243 199.502 39.282 L 193.094 39.321 193.094 41.781 L 193.094 44.240 200.830 44.191 C 209.213 44.137,209.225 44.136,210.731 43.373 C 215.209 41.104,215.334 32.631,210.925 30.243 C 209.503 29.472,208.558 29.332,204.117 29.233 C 200.141 29.144,200.055 29.137,199.469 28.814 C 197.980 27.996,197.854 25.822,199.235 24.790 C 199.718 24.430,201.759 24.317,207.935 24.309 L 212.882 24.303 212.882 21.912 L 212.882 19.522 205.611 19.537 C 201.612 19.546,198.220 19.576,198.074 19.605 M333.732 31.939 L 333.732 44.223 335.921 44.223 L 338.110 44.223 338.145 40.422 L 338.181 36.620 341.471 40.422 L 344.762 44.223 347.424 44.223 C 349.965 44.223,350.083 44.212,350.042 43.971 C 350.019 43.832,348.280 41.829,346.177 39.520 C 344.074 37.211,342.321 35.236,342.281 35.131 C 342.235 35.011,343.481 33.517,345.672 31.066 C 347.578 28.935,349.137 27.109,349.137 27.008 C 349.137 26.860,348.648 26.826,346.502 26.826 L 343.867 26.826 341.024 30.224 L 338.181 33.622 338.146 26.638 L 338.112 19.655 335.922 19.655 L 333.732 19.655 333.732 31.939 M351.926 31.939 L 351.926 44.223 354.117 44.223 L 356.308 44.223 356.308 31.939 L 356.308 19.655 354.117 19.655 L 351.926 19.655 351.926 31.939 M381.009 31.939 L 381.009 44.223 383.057 44.223 L 385.105 44.223 385.198 43.327 C 385.325 42.112,385.314 42.116,386.197 42.959 C 388.949 45.584,394.572 45.118,397.550 42.018 C 400.056 39.410,400.619 34.145,398.768 30.616 C 396.509 26.306,389.655 25.050,386.023 28.280 L 385.392 28.841 385.392 24.248 L 385.392 19.655 383.201 19.655 L 381.009 19.655 381.009 31.939 M293.028 26.626 C 287.111 27.740,284.213 34.356,287.037 40.305 C 289.234 44.936,296.498 46.378,299.838 42.847 C 300.587 42.055,300.664 42.084,300.664 43.161 C 300.664 44.270,300.567 44.223,302.869 44.223 L 304.914 44.223 304.914 35.525 L 304.914 26.826 302.789 26.826 L 300.664 26.826 300.664 27.473 C 300.664 27.830,300.628 28.300,300.584 28.519 L 300.505 28.916 299.983 28.351 C 298.554 26.799,295.773 26.110,293.028 26.626 M314.296 26.703 C 310.076 27.740,307.902 30.762,307.902 35.591 C 307.902 40.125,309.814 43.085,313.479 44.223 C 314.275 44.470,314.277 44.485,313.745 46.082 L 313.251 47.566 313.697 47.947 C 314.221 48.396,314.233 48.397,315.002 48.130 C 316.708 47.536,318.145 49.334,316.603 50.131 C 315.766 50.564,314.272 50.297,313.523 49.580 L 313.169 49.241 312.229 50.000 C 311.122 50.895,311.102 50.996,311.885 51.746 C 314.495 54.247,319.478 53.522,320.511 50.492 C 321.220 48.410,320.076 46.413,318.010 46.130 C 317.168 46.015,317.122 45.964,317.282 45.334 L 317.420 44.791 318.371 44.711 C 320.049 44.569,321.869 43.771,323.129 42.624 L 323.838 41.979 322.377 40.584 C 320.686 38.970,320.881 39.054,320.135 39.623 C 318.937 40.537,316.432 40.788,314.978 40.139 C 311.280 38.488,311.327 32.671,315.052 30.999 C 316.628 30.292,318.232 30.431,319.854 31.416 L 320.651 31.900 322.019 30.458 L 323.387 29.017 322.736 28.413 C 320.808 26.625,317.415 25.937,314.296 26.703 M366.223 26.567 C 360.115 27.592,357.105 34.262,359.993 40.372 C 362.244 45.133,370.278 46.393,373.185 42.440 L 373.572 41.913 373.574 42.570 C 373.575 42.931,373.612 43.451,373.658 43.725 L 373.740 44.223 375.781 44.223 L 377.822 44.223 377.822 35.525 L 377.822 26.826 375.697 26.826 L 373.572 26.826 373.572 27.903 L 373.572 28.979 372.782 28.248 C 371.149 26.736,368.801 26.134,366.223 26.567 M325.498 35.857 L 325.498 44.223 327.822 44.223 L 330.146 44.223 330.146 35.857 L 330.146 27.490 327.822 27.490 L 325.498 27.490 325.498 35.857 M297.636 30.839 C 299.695 31.787,300.843 34.243,300.345 36.634 C 299.076 42.719,290.573 41.817,290.517 35.591 C 290.483 31.701,294.166 29.242,297.636 30.839 M370.683 30.916 C 372.648 31.883,373.742 34.200,373.319 36.496 C 372.270 42.187,364.361 42.126,363.475 36.420 C 362.813 32.152,366.882 29.045,370.683 30.916 M391.868 30.734 C 397.326 32.187,396.219 40.556,390.571 40.537 C 389.211 40.532,388.263 40.159,387.266 39.236 C 383.501 35.750,386.928 29.419,391.868 30.734 M32.802 35.286 C 31.472 35.773,31.505 36.214,33.280 41.662 C 34.132 44.276,34.884 46.612,34.952 46.853 C 35.488 48.750,38.247 48.570,38.247 46.638 C 38.247 46.239,35.178 36.609,34.843 35.958 C 34.529 35.347,33.533 35.019,32.802 35.286 " stroke="none" fill="#000000" fill-rule="evenodd"></path></g></svg>