<svg id="svg" xmlns="http://www.w3.org/2000/svg" xmlns:xlink="http://www.w3.org/1999/xlink" width="400" height="314.3827859569649" viewBox="0, 0, 400,314.3827859569649"><g id="svgg"><path id="path0" d="M198.528 0.810 C 197.127 1.540,196.165 2.998,196.154 4.406 C 196.142 6.053,210.622 50.354,211.750 52.121 C 212.943 53.990,214.507 55.209,217.045 56.251 C 218.217 56.732,218.471 56.740,235.755 56.852 L 253.277 56.965 248.666 60.375 C 242.674 64.806,233.620 71.398,233.129 71.687 C 225.881 75.958,222.530 80.002,222.544 84.464 L 222.552 86.863 224.657 93.205 C 228.217 103.929,232.527 117.125,233.054 118.913 C 235.365 126.754,237.377 132.418,238.097 133.115 C 240.361 135.306,243.434 134.801,244.869 132.002 C 245.537 130.700,245.408 129.844,243.843 125.180 C 242.269 120.492,235.622 99.974,232.641 90.600 C 231.630 87.424,230.804 84.648,230.804 84.432 C 230.804 83.584,233.911 81.113,243.349 74.453 C 245.328 73.057,248.640 70.671,250.710 69.153 C 252.780 67.634,256.461 64.939,258.890 63.164 C 268.847 55.889,269.949 55.025,270.200 54.306 C 270.842 52.465,270.202 50.497,268.586 49.345 L 267.837 48.811 243.601 48.626 C 219.537 48.442,219.363 48.437,218.967 47.975 C 218.748 47.719,218.048 45.865,217.413 43.856 C 216.777 41.848,214.680 35.362,212.753 29.445 C 210.826 23.528,208.099 15.154,206.694 10.836 C 205.289 6.518,203.927 2.641,203.666 2.220 C 202.696 0.650,200.166 -0.044,198.528 0.810 M190.684 24.916 C 189.301 25.648,188.229 27.314,188.223 28.744 C 188.223 28.918,189.183 31.976,190.357 35.539 C 191.531 39.101,193.326 44.615,194.346 47.792 C 196.988 56.022,197.904 57.281,200.864 56.746 C 204.896 56.016,205.058 54.168,201.944 44.420 C 200.646 40.357,199.258 35.963,198.861 34.655 C 197.275 29.441,196.358 26.900,195.796 26.163 C 194.605 24.602,192.330 24.047,190.684 24.916 M132.390 49.075 C 129.678 50.507,129.208 53.617,131.400 55.626 C 131.820 56.011,135.170 58.502,138.845 61.162 C 142.520 63.822,146.903 67.032,148.584 68.296 C 150.266 69.560,152.865 71.424,154.360 72.439 C 160.330 76.492,169.498 83.449,169.707 84.087 C 169.877 84.602,169.271 86.650,166.158 96.091 C 164.093 102.352,161.837 109.309,161.144 111.552 C 160.450 113.794,158.870 118.712,157.631 122.481 C 154.814 131.054,154.776 131.967,157.167 133.730 C 159.226 135.250,160.256 134.871,166.351 130.354 C 168.835 128.513,171.434 126.645,172.127 126.204 C 172.819 125.762,175.578 123.770,178.256 121.777 C 184.381 117.219,194.306 109.972,196.191 108.681 C 204.658 102.882,205.939 100.888,203.200 97.768 C 201.074 95.345,199.778 95.772,192.135 101.416 C 189.242 103.552,185.726 106.091,184.321 107.058 C 182.916 108.024,179.983 110.151,177.803 111.784 C 175.623 113.417,172.667 115.604,171.234 116.645 C 169.802 117.685,168.310 118.778,167.919 119.072 L 167.208 119.607 167.529 118.637 C 167.705 118.104,170.141 110.746,172.941 102.286 C 178.324 86.026,178.569 85.089,178.057 82.701 C 177.362 79.462,176.013 77.843,171.050 74.292 C 169.047 72.860,163.555 68.892,158.846 65.476 C 154.136 62.059,149.533 58.721,148.617 58.058 L 146.951 56.852 166.237 56.852 C 184.931 56.852,185.549 56.838,186.390 56.409 C 189.566 54.788,189.552 50.688,186.365 49.018 C 185.386 48.505,133.364 48.560,132.390 49.075 M211.731 87.427 C 208.621 88.364,208.201 90.438,210.010 95.923 C 210.708 98.041,211.601 100.793,211.993 102.039 C 214.820 111.024,216.886 117.113,217.349 117.832 C 218.898 120.235,222.693 120.126,224.152 117.637 C 225.122 115.981,225.009 115.251,222.703 108.267 C 221.572 104.841,219.726 99.185,218.602 95.696 C 216.029 87.714,214.977 86.448,211.731 87.427 M73.964 174.328 C 70.858 175.281,69.570 177.021,66.584 184.298 C 64.389 189.647,61.374 196.819,60.674 198.355 C 60.003 199.828,57.652 205.454,55.112 211.665 C 54.296 213.658,53.373 215.900,53.060 216.648 C 51.606 220.116,50.283 223.429,50.283 223.601 C 50.283 223.705,53.088 223.763,56.516 223.730 L 62.748 223.669 67.178 212.684 C 69.615 206.642,71.793 201.189,72.018 200.566 C 73.173 197.370,74.493 193.889,75.855 190.446 L 77.370 186.617 79.568 192.119 C 80.777 195.146,82.531 199.507,83.467 201.812 C 84.402 204.117,85.624 207.234,86.183 208.739 C 86.742 210.244,87.716 212.741,88.348 214.288 C 88.981 215.835,89.997 218.462,90.606 220.125 C 91.216 221.788,91.833 223.291,91.978 223.466 C 92.276 223.825,104.643 223.950,104.643 223.594 C 104.643 223.330,103.404 220.332,99.711 211.665 C 97.960 207.554,96.308 203.630,96.039 202.945 C 95.771 202.259,95.107 200.680,94.564 199.434 C 93.107 196.095,90.112 188.841,90.028 188.448 C 89.873 187.721,86.455 179.879,85.721 178.565 C 83.542 174.666,78.631 172.896,73.964 174.328 M317.041 174.188 C 313.774 175.000,312.297 176.808,309.598 183.298 C 308.963 184.823,308.038 187.039,307.542 188.222 C 307.045 189.405,306.541 190.708,306.421 191.117 C 306.224 191.790,305.464 193.607,302.324 200.906 C 301.762 202.214,300.310 205.675,299.098 208.597 C 297.887 211.519,295.988 216.027,294.880 218.616 C 293.772 221.204,292.865 223.425,292.865 223.552 C 292.865 223.925,305.201 223.862,305.512 223.488 C 305.647 223.325,306.103 222.175,306.526 220.931 C 306.949 219.688,307.710 217.699,308.217 216.512 C 309.010 214.655,311.594 208.157,314.601 200.453 C 315.064 199.270,316.496 195.672,317.784 192.457 L 320.126 186.613 321.447 189.966 C 322.173 191.810,323.427 195.051,324.233 197.169 C 325.039 199.287,327.733 206.116,330.219 212.344 L 334.738 223.669 340.982 223.730 C 344.416 223.763,347.225 223.712,347.225 223.616 C 347.225 223.310,346.337 221.070,344.238 216.082 C 343.112 213.403,342.111 211.008,342.016 210.759 C 341.577 209.616,337.772 200.533,336.797 198.301 C 336.199 196.931,335.405 195.045,335.034 194.111 C 327.797 175.905,326.522 174.143,320.498 174.026 C 319.066 173.998,317.510 174.071,317.041 174.188 M358.864 174.167 C 356.603 174.707,354.748 176.170,353.747 178.202 L 353.001 179.718 352.940 201.750 L 352.879 223.783 358.659 223.783 L 364.439 223.783 364.439 207.090 L 364.439 190.397 366.273 193.330 C 367.282 194.943,368.524 196.874,369.033 197.622 C 369.973 199.001,371.345 201.172,376.549 209.513 C 382.566 219.158,383.467 220.523,384.416 221.435 C 385.675 222.644,387.048 223.486,388.316 223.825 C 388.873 223.974,389.277 224.178,389.214 224.279 C 389.152 224.380,390.234 224.462,391.619 224.462 C 393.241 224.462,394.088 224.381,393.998 224.236 C 393.921 224.111,394.042 224.008,394.267 224.007 C 395.727 223.999,398.100 222.243,399.209 220.351 L 400.000 219.002 400.000 196.704 L 400.000 174.405 394.337 174.405 L 388.675 174.405 388.675 190.969 L 388.675 207.533 387.241 205.182 C 386.452 203.889,385.081 201.710,384.195 200.340 C 382.240 197.320,379.425 192.848,376.740 188.502 C 369.390 176.603,368.188 175.171,364.779 174.260 C 363.580 173.940,360.049 173.884,358.864 174.167 M0.453 199.094 L 0.453 223.783 6.347 223.783 L 12.240 223.783 12.179 213.590 L 12.118 203.397 22.480 203.397 L 32.843 203.398 32.843 213.590 L 32.843 223.783 38.845 223.783 L 44.847 223.783 44.847 199.094 L 44.847 174.405 38.845 174.405 L 32.843 174.405 32.843 183.918 L 32.843 193.431 22.537 193.431 L 12.231 193.431 12.231 183.918 L 12.231 174.405 6.342 174.405 L 0.453 174.405 0.453 199.094 M97.622 174.602 C 97.622 174.711,98.143 176.061,98.779 177.603 C 102.432 186.450,108.865 202.547,109.043 203.284 C 109.073 203.409,109.208 203.766,109.342 204.077 C 109.477 204.388,110.319 206.478,111.214 208.720 C 115.289 218.934,115.784 219.970,117.419 221.714 C 118.330 222.685,120.668 224.009,121.474 224.009 C 121.700 224.009,121.821 224.111,121.744 224.236 C 121.654 224.381,122.459 224.462,123.996 224.462 C 125.439 224.462,126.387 224.372,126.387 224.236 C 126.387 224.111,126.566 224.008,126.784 224.007 C 127.625 224.002,129.627 222.837,130.757 221.694 C 132.181 220.254,132.694 219.217,135.551 212.005 C 136.760 208.952,139.059 203.245,140.658 199.320 C 142.258 195.396,144.252 190.402,145.088 188.222 C 146.833 183.675,147.899 180.993,149.363 177.465 C 149.931 176.095,150.396 174.845,150.396 174.687 C 150.396 174.459,149.064 174.411,144.031 174.459 L 137.666 174.519 136.701 177.123 C 136.170 178.556,134.643 182.633,133.306 186.183 C 131.970 189.734,130.519 193.607,130.081 194.790 C 129.644 195.974,128.796 198.267,128.195 199.887 C 127.595 201.506,126.790 203.800,126.406 204.983 C 124.866 209.726,124.190 211.272,123.931 210.646 C 123.646 209.959,119.715 199.437,116.611 191.053 C 112.786 180.721,111.155 176.372,110.730 175.368 L 110.322 174.405 103.972 174.405 C 100.479 174.405,97.622 174.494,97.622 174.602 M161.661 174.651 C 158.683 175.355,156.603 177.757,156.051 181.128 C 155.757 182.924,155.768 215.078,156.064 216.988 C 156.574 220.288,158.311 222.435,161.189 223.323 C 162.625 223.767,163.240 223.783,179.417 223.783 L 196.158 223.783 196.097 218.743 L 196.036 213.703 181.993 213.590 L 167.950 213.477 167.837 208.550 L 167.724 203.623 181.488 203.624 L 195.252 203.624 195.191 198.584 L 195.130 193.545 181.479 193.545 L 167.828 193.545 167.889 189.128 L 167.950 184.711 181.941 184.653 L 195.932 184.595 195.871 179.557 L 195.810 174.519 179.162 174.484 C 170.006 174.465,162.130 174.540,161.661 174.651 M203.622 174.572 C 203.441 188.579,203.688 217.838,203.994 218.742 C 204.524 220.302,205.488 221.585,206.731 222.382 C 208.922 223.788,208.836 223.783,227.001 223.783 L 243.488 223.783 243.488 218.686 L 243.488 213.590 229.560 213.590 L 215.631 213.590 215.573 194.054 L 215.515 174.519 209.570 174.458 C 206.300 174.425,203.623 174.476,203.622 174.572 M259.683 174.561 C 243.605 175.961,241.307 199.135,256.855 203.070 C 257.973 203.353,260.109 203.486,265.798 203.627 C 273.403 203.815,274.404 203.932,275.823 204.798 C 278.375 206.357,278.550 210.986,276.119 212.624 C 274.596 213.650,274.331 213.670,261.212 213.759 L 248.698 213.844 248.698 218.831 L 248.698 223.817 263.590 223.721 C 280.147 223.614,280.360 223.597,283.493 222.077 C 292.825 217.552,293.041 200.359,283.824 195.706 C 280.810 194.184,276.845 193.660,268.358 193.659 C 260.610 193.658,258.798 192.629,259.177 188.448 C 259.540 184.450,259.851 184.375,276.048 184.373 L 288.109 184.371 288.109 179.388 L 288.109 174.405 274.349 174.444 C 266.781 174.464,260.181 174.517,259.683 174.561 M184.145 277.803 L 184.145 298.754 187.879 298.754 L 191.613 298.754 191.673 292.271 L 191.733 285.787 197.345 292.271 L 202.958 298.754 207.497 298.754 C 211.832 298.754,212.033 298.735,211.964 298.324 C 211.924 298.087,208.957 294.671,205.371 290.732 C 201.785 286.794,198.795 283.426,198.726 283.247 C 198.647 283.042,200.772 280.495,204.510 276.314 C 207.760 272.679,210.419 269.565,210.419 269.394 C 210.419 269.140,209.585 269.083,205.925 269.083 L 201.431 269.083 196.582 274.878 L 191.733 280.673 191.674 268.763 L 191.615 256.852 187.880 256.852 L 184.145 256.852 184.145 277.803 M215.176 277.803 L 215.176 298.754 218.913 298.754 L 222.650 298.754 222.650 277.803 L 222.650 256.852 218.913 256.852 L 215.176 256.852 215.176 277.803 M264.779 277.803 L 264.779 298.754 268.272 298.754 L 271.765 298.754 271.924 297.225 C 272.139 295.154,272.120 295.161,273.628 296.598 C 278.321 301.075,287.911 300.281,292.991 294.994 C 297.265 290.546,298.224 281.566,295.068 275.546 C 291.215 268.196,279.524 266.054,273.330 271.562 L 272.254 272.519 272.254 264.685 L 272.254 256.852 268.516 256.852 L 264.779 256.852 264.779 277.803 M114.723 268.742 C 104.632 270.641,99.689 281.926,104.504 292.072 C 108.252 299.970,120.641 302.430,126.337 296.408 C 127.616 295.056,127.746 295.105,127.746 296.942 C 127.746 298.834,127.581 298.754,131.508 298.754 L 134.994 298.754 134.994 283.918 L 134.994 269.083 131.370 269.083 L 127.746 269.083 127.746 270.187 C 127.746 270.794,127.685 271.596,127.611 271.969 L 127.475 272.648 126.586 271.683 C 124.147 269.037,119.404 267.862,114.723 268.742 M150.997 268.873 C 143.799 270.641,140.091 275.796,140.091 284.032 C 140.091 291.766,143.352 296.813,149.604 298.754 C 150.961 299.176,150.965 299.200,150.057 301.924 L 149.214 304.455 149.975 305.106 C 150.869 305.871,150.889 305.874,152.201 305.417 C 155.109 304.404,157.562 307.471,154.931 308.831 C 153.503 309.570,150.955 309.113,149.679 307.891 L 149.074 307.312 147.470 308.608 C 145.583 310.133,145.549 310.306,146.884 311.585 C 151.335 315.850,159.835 314.614,161.596 309.446 C 162.806 305.895,160.854 302.490,157.331 302.007 C 155.895 301.810,155.817 301.724,156.090 300.648 L 156.324 299.723 157.947 299.586 C 160.809 299.344,163.913 297.982,166.062 296.027 L 167.271 294.927 164.779 292.548 C 161.896 289.795,162.227 289.937,160.955 290.908 C 158.912 292.468,154.639 292.896,152.159 291.789 C 145.852 288.973,145.933 279.052,152.287 276.201 C 154.974 274.995,157.710 275.232,160.476 276.911 L 161.835 277.736 164.168 275.278 L 166.501 272.820 165.391 271.790 C 162.103 268.739,156.315 267.566,150.997 268.873 M239.561 268.640 C 229.143 270.389,224.010 281.765,228.935 292.186 C 232.773 300.306,246.476 302.455,251.434 295.714 L 252.095 294.814 252.098 295.935 C 252.099 296.551,252.163 297.438,252.241 297.905 L 252.381 298.754 255.862 298.754 L 259.343 298.754 259.343 283.918 L 259.343 269.083 255.719 269.083 L 252.095 269.083 252.095 270.919 L 252.095 272.755 250.747 271.507 C 247.961 268.928,243.958 267.902,239.561 268.640 M170.102 284.485 L 170.102 298.754 174.066 298.754 L 178.029 298.754 178.029 284.485 L 178.029 270.215 174.066 270.215 L 170.102 270.215 170.102 284.485 M122.581 275.927 C 126.094 277.544,128.052 281.733,127.202 285.810 C 125.038 296.189,110.536 294.651,110.441 284.032 C 110.381 277.397,116.664 273.203,122.581 275.927 M247.167 276.059 C 250.518 277.708,252.384 281.659,251.663 285.575 C 249.874 295.282,236.384 295.177,234.874 285.445 C 233.745 278.166,240.685 272.867,247.167 276.059 M283.299 275.747 C 292.608 278.226,290.719 292.500,281.087 292.467 C 278.768 292.459,277.151 291.823,275.451 290.249 C 269.030 284.303,274.874 273.505,283.299 275.747 " stroke="none" fill="#000000" fill-rule="evenodd"></path></g></svg>