<svg xmlns="http://www.w3.org/2000/svg" viewBox="0 0 139.095 39.435"><path d="M3.74-38.5H9.9V0H3.74Zm16.775,7.26a3.852,3.852,0,0,1-2.805-1.073,3.575,3.575,0,0,1-1.1-2.667,3.708,3.708,0,0,1,1.1-2.777,3.852,3.852,0,0,1,2.805-1.073A4.019,4.019,0,0,1,23.4-37.757,3.661,3.661,0,0,1,24.53-34.98,3.532,3.532,0,0,1,23.4-32.313,4.019,4.019,0,0,1,20.515-31.24Zm-3.08,4.07H23.6V0h-6.16Zm45.76-.55A10.948,10.948,0,0,1,71.5-24.558Q74.525-21.4,74.525-15.9V0h-6.16V-15.4a7.648,7.648,0,0,0-1.458-5.005,5.152,5.152,0,0,0-4.208-1.76,6.469,6.469,0,0,0-4.9,1.953,7.124,7.124,0,0,0-1.87,5.142V0h-6.16V-15.4a7.549,7.549,0,0,0-1.485-5.005,5.233,5.233,0,0,0-4.235-1.76,6.469,6.469,0,0,0-4.9,1.953,7.124,7.124,0,0,0-1.87,5.142V0H31.13V-27.17h5.5l.055,3.19a9.619,9.619,0,0,1,8.03-3.74,10.742,10.742,0,0,1,5.2,1.265,8.884,8.884,0,0,1,3.6,3.52Q56.76-27.72,63.195-27.72Zm45.6.55V0h-5.5l-.055-3.63a10.792,10.792,0,0,1-4.18,3.107A14.157,14.157,0,0,1,93.335.605a13.618,13.618,0,0,1-7.013-1.788,12.355,12.355,0,0,1-4.757-5.033,15.6,15.6,0,0,1-1.7-7.37,15.605,15.605,0,0,1,1.7-7.37,12.355,12.355,0,0,1,4.757-5.033,13.618,13.618,0,0,1,7.013-1.787,14.157,14.157,0,0,1,5.72,1.127,10.792,10.792,0,0,1,4.18,3.108l.055-3.63ZM94.325-5.005a7.961,7.961,0,0,0,6-2.393,8.537,8.537,0,0,0,2.31-6.187,8.537,8.537,0,0,0-2.31-6.188,7.961,7.961,0,0,0-6-2.392,7.961,7.961,0,0,0-5.995,2.392,8.537,8.537,0,0,0-2.31,6.188A8.537,8.537,0,0,0,88.33-7.4,7.961,7.961,0,0,0,94.325-5.005Zm36.9-22.715a11.73,11.73,0,0,1,6.105,1.568,10.462,10.462,0,0,1,4.07,4.427,14.83,14.83,0,0,1,1.43,6.71V0h-6.16V-14.63a8.079,8.079,0,0,0-1.76-5.555,6.143,6.143,0,0,0-4.84-1.98,7.3,7.3,0,0,0-5.5,2.228A7.8,7.8,0,0,0,122.43-14.3V0h-6.16V-27.17h5.5l.055,3.575A11.639,11.639,0,0,1,131.23-27.72Z" transform="translate(-3.74 38.83)" fill="#fff"/></svg>